<svg width="199" height="49" viewBox="0 0 199 49" fill="none" xmlns="http://www.w3.org/2000/svg">
<path d="M16.4092 22.1309L0.271484 15.8076V11.1689L21.1211 20.3975V23.9619L0.271484 33.2148V28.5273L16.4092 22.1309Z" fill="#2C98D4"/>
<path d="M43.8506 38H39.334V0.5H43.8506V38ZM62.0635 38.4883C58.4827 38.4883 55.5693 37.3164 53.3232 34.9727C51.0771 32.6126 49.9541 29.4632 49.9541 25.5244V24.6943C49.9541 22.0739 50.4505 19.7383 51.4434 17.6875C52.4525 15.6204 53.8522 14.0091 55.6426 12.8535C57.4492 11.6816 59.4023 11.0957 61.502 11.0957C64.9362 11.0957 67.6055 12.2269 69.5098 14.4893C71.4141 16.7516 72.3662 19.9906 72.3662 24.2061V26.0859H54.4707C54.5358 28.6901 55.2926 30.7979 56.7412 32.4092C58.2061 34.0042 60.0615 34.8018 62.3076 34.8018C63.9027 34.8018 65.2536 34.4762 66.3604 33.8252C67.4671 33.1742 68.4355 32.3115 69.2656 31.2373L72.0244 33.3857C69.8109 36.7874 66.4906 38.4883 62.0635 38.4883ZM61.502 14.8066C59.679 14.8066 58.1491 15.474 56.9121 16.8086C55.6751 18.127 54.9102 19.9824 54.6172 22.375H67.8496V22.0332C67.7194 19.7383 67.1009 17.9642 65.9941 16.7109C64.8874 15.4414 63.39 14.8066 61.502 14.8066ZM85.916 31.3838L92.0684 11.584H96.9023L86.2822 42.0771C84.6383 46.4717 82.026 48.6689 78.4453 48.6689L77.5908 48.5957L75.9062 48.2783V44.6162L77.127 44.7139C78.6569 44.7139 79.8451 44.4046 80.6914 43.7861C81.554 43.1676 82.262 42.0365 82.8154 40.3926L83.8164 37.707L74.3926 11.584H79.3242L85.916 31.3838ZM99.5146 24.5723C99.5146 20.5195 100.475 17.2643 102.396 14.8066C104.316 12.3327 106.831 11.0957 109.939 11.0957C113.032 11.0957 115.481 12.1536 117.288 14.2695V0.5H121.805V38H117.654L117.435 35.168C115.628 37.3815 113.113 38.4883 109.891 38.4883C106.831 38.4883 104.332 37.235 102.396 34.7285C100.475 32.222 99.5146 28.9505 99.5146 24.9141V24.5723ZM104.031 25.085C104.031 28.0798 104.65 30.4235 105.887 32.1162C107.124 33.8089 108.833 34.6553 111.014 34.6553C113.878 34.6553 115.97 33.3695 117.288 30.7979V18.6641C115.937 16.1738 113.862 14.9287 111.062 14.9287C108.849 14.9287 107.124 15.7832 105.887 17.4922C104.65 19.2012 104.031 21.7321 104.031 25.085ZM139.798 38.4883C136.217 38.4883 133.304 37.3164 131.058 34.9727C128.812 32.6126 127.688 29.4632 127.688 25.5244V24.6943C127.688 22.0739 128.185 19.7383 129.178 17.6875C130.187 15.6204 131.587 14.0091 133.377 12.8535C135.184 11.6816 137.137 11.0957 139.236 11.0957C142.671 11.0957 145.34 12.2269 147.244 14.4893C149.148 16.7516 150.101 19.9906 150.101 24.2061V26.0859H132.205C132.27 28.6901 133.027 30.7979 134.476 32.4092C135.94 34.0042 137.796 34.8018 140.042 34.8018C141.637 34.8018 142.988 34.4762 144.095 33.8252C145.201 33.1742 146.17 32.3115 147 31.2373L149.759 33.3857C147.545 36.7874 144.225 38.4883 139.798 38.4883ZM139.236 14.8066C137.413 14.8066 135.883 15.474 134.646 16.8086C133.41 18.127 132.645 19.9824 132.352 22.375H145.584V22.0332C145.454 19.7383 144.835 17.9642 143.729 16.7109C142.622 15.4414 141.124 14.8066 139.236 14.8066ZM163.724 31.8721L170.267 11.584H174.881L165.408 38H161.966L152.396 11.584H157.01L163.724 31.8721Z" fill="white"/>
<path d="M198.27 41.6865H175.906V38H198.27V41.6865Z" fill="#7FE82D"/>
</svg>
