<svg width="397" height="97" viewBox="0 0 397 97" fill="none" xmlns="http://www.w3.org/2000/svg">
<path d="M32.8184 43.2617L0.542969 30.6152V21.3379L42.2422 39.7949V46.9238L0.542969 65.4297V56.0547L32.8184 43.2617ZM396.539 82.373H351.812V75H396.539V82.373Z" fill="#2C98D4"/>
<path d="M87.7012 75H78.668V0H87.7012V75ZM124.127 75.9766C116.965 75.9766 111.139 73.6328 106.646 68.9453C102.154 64.2253 99.9082 57.9264 99.9082 50.0488V48.3887C99.9082 43.1478 100.901 38.4766 102.887 34.375C104.905 30.2409 107.704 27.0182 111.285 24.707C114.898 22.3633 118.805 21.1914 123.004 21.1914C129.872 21.1914 135.211 23.4538 139.02 27.9785C142.828 32.5033 144.732 38.9811 144.732 47.4121V51.1719H108.941C109.072 56.3802 110.585 60.5957 113.482 63.8184C116.412 67.0085 120.123 68.6035 124.615 68.6035C127.805 68.6035 130.507 67.9525 132.721 66.6504C134.934 65.3483 136.871 63.623 138.531 61.4746L144.049 65.7715C139.622 72.5749 132.981 75.9766 124.127 75.9766ZM123.004 28.6133C119.358 28.6133 116.298 29.9479 113.824 32.6172C111.35 35.2539 109.82 38.9648 109.234 43.75H135.699V43.0664C135.439 38.4766 134.202 34.9284 131.988 32.4219C129.775 29.8828 126.78 28.6133 123.004 28.6133ZM171.832 61.7676L184.137 22.168H193.805L172.564 83.1543C169.277 91.9434 164.052 96.3379 156.891 96.3379L155.182 96.1914L151.812 95.5566V88.2324L154.254 88.4277C157.314 88.4277 159.69 87.8092 161.383 86.5723C163.108 85.3353 164.524 83.0729 165.631 79.7852L167.633 74.4141L148.785 22.168H158.648L171.832 61.7676ZM199.029 48.1445C199.029 40.0391 200.95 33.5286 204.791 28.6133C208.632 23.6654 213.661 21.1914 219.879 21.1914C226.064 21.1914 230.963 23.3073 234.576 27.5391V0H243.609V75H235.309L234.869 69.3359C231.256 73.763 226.227 75.9766 219.781 75.9766C213.661 75.9766 208.665 73.4701 204.791 68.457C200.95 63.444 199.029 56.901 199.029 48.8281V48.1445ZM208.062 49.1699C208.062 55.1595 209.299 59.847 211.773 63.2324C214.247 66.6178 217.665 68.3105 222.027 68.3105C227.757 68.3105 231.939 65.7389 234.576 60.5957V36.3281C231.874 31.3477 227.724 28.8574 222.125 28.8574C217.698 28.8574 214.247 30.5664 211.773 33.9844C209.299 37.4023 208.062 42.4642 208.062 49.1699ZM279.596 75.9766C272.434 75.9766 266.607 73.6328 262.115 68.9453C257.623 64.2253 255.377 57.9264 255.377 50.0488V48.3887C255.377 43.1478 256.37 38.4766 258.355 34.375C260.374 30.2409 263.173 27.0182 266.754 24.707C270.367 22.3633 274.273 21.1914 278.473 21.1914C285.341 21.1914 290.68 23.4538 294.488 27.9785C298.297 32.5033 300.201 38.9811 300.201 47.4121V51.1719H264.41C264.54 56.3802 266.054 60.5957 268.951 63.8184C271.881 67.0085 275.592 68.6035 280.084 68.6035C283.274 68.6035 285.976 67.9525 288.189 66.6504C290.403 65.3483 292.34 63.623 294 61.4746L299.518 65.7715C295.09 72.5749 288.45 75.9766 279.596 75.9766ZM278.473 28.6133C274.827 28.6133 271.767 29.9479 269.293 32.6172C266.819 35.2539 265.289 38.9648 264.703 43.75H291.168V43.0664C290.908 38.4766 289.671 34.9284 287.457 32.4219C285.243 29.8828 282.249 28.6133 278.473 28.6133ZM327.447 62.7441L340.533 22.168H349.762L330.816 75H323.932L304.791 22.168H314.02L327.447 62.7441Z" fill="#717171"/>
</svg>
