<svg height="467pt" viewBox="-98 0 467 467.36" width="467pt" xmlns="http://www.w3.org/2000/svg"><path d="m270.199219 373.890625v62.308594c.003906 17.207031-13.941407 31.15625-31.148438 31.160156h-207.722656c-17.203125-.003906-31.148437-13.953125-31.148437-31.160156v-62.308594h138.960937l5.007813 8.988281c6.089843 10.949219 17.625 17.75 30.152343 17.78125h40.890625c16.074219-.027344 30.011719-11.128906 33.636719-26.789062l.113281.019531zm0 0" fill="#00acea"/><path d="m270.199219 77.898438v295.992187h-21.257813l-.113281-.019531c.585937-2.554688.878906-5.164063.882813-7.78125.039062-35.410156.070312-22.730469.007812-47.96875-.011719-2.800782-1.144531-5.480469-3.140625-7.445313-2-1.964843-4.699219-3.050781-7.5-3.015625-1.296875 0-2.886719-.011718-4.1875-.011718-5.878906 0-9.75 4.582031-9.75 10.460937v-16.378906c-.003906-4.9375-4.003906-8.9375-8.941406-8.941407h-7.898438c-4.9375.003907-8.9375 4.003907-8.941406 8.941407h-.070313v-6.261719c-.003906-4.9375-4.011718-8.9375-8.949218-8.9375h-7.96875c-4.9375 0-8.9375 4.003906-8.941406 8.9375h-.03125c.011718-4.007812.023437-8.546875.03125-13.238281h6.550781c13.28125 0 23.609375-10.910157 22.179687-23.402344l-10.941406-95.078125h-21.808594v-15.839844c-.035156-8.351562-3.507812-16.320312-9.601562-22.03125-6.316406-5.945312-14.679688-9.234375-23.359375-9.179687-18.089844 0-32.960938 13.851562-32.960938 31.210937v15.839844h-23.789062l-10.9375 95.078125c-1.441407 12.492187 8.898437 23.402344 22.167969 23.402344h57.371093c0 15.550781 0 32.097656.007813 45.878906l-10.199219-11.699219c-6.847656-7.820312-18.710937-8.675781-26.609375-1.921875l-3.808594 2.921875 31.449219 56.480469h-138.960937v-295.992187zm0 0" fill="#00efd1"/><path d="m270.199219 31.160156v46.738282h-270.019531v-46.738282c0-17.207031 13.945312-31.15624975 31.148437-31.160156h207.722656c17.207031.00390625 31.152344 13.953125 31.148438 31.160156zm0 0" fill="#00acea"/><path d="m173.429688 295.46875c.003906-4.933594 4.003906-8.9375 8.941406-8.9375h7.96875c4.9375 0 8.945312 4 8.949218 8.9375v6.261719h.070313c.003906-4.9375 4.003906-8.9375 8.941406-8.941407h7.898438c4.9375.003907 8.9375 4.003907 8.941406 8.941407v16.378906c0-5.878906 3.871094-10.460937 9.75-10.460937 1.300781 0 2.890625.011718 4.1875.011718 2.800781-.035156 5.5 1.050782 7.5 3.015625 1.996094 1.964844 3.128906 4.644531 3.140625 7.445313.0625 25.238281.03125 12.558594-.007812 47.96875-.003907 2.617187-.296876 5.226562-.882813 7.78125-3.625 15.660156-17.5625 26.761718-33.636719 26.789062h-40.890625c-12.527343-.03125-24.0625-6.832031-30.152343-17.78125l-5.007813-8.988281-31.449219-56.480469 3.808594-2.921875c7.898438-6.753906 19.761719-5.898437 26.609375 1.921875l10.199219 11.699219c-.007813-13.78125-.007813-30.328125-.007813-45.878906 0-15.359375.007813-29.742188.039063-39.5.011718-5.871094 4.769531-10.191407 10.628906-10.191407h3.921875c5.871094 0 10.628906 4.332032 10.640625 10.199219 0 2.542969-.050781 22.070313-.101562 39.492188-.007813 4.691406-.019532 9.230469-.03125 13.238281zm0 0" fill="#f7caa5"/><path d="m169.410156 163.75h21.808594l10.941406 95.078125c1.429688 12.492187-8.898437 23.402344-22.179687 23.402344h-6.550781c.050781-17.421875.101562-36.949219.101562-39.492188-.011719-5.867187-4.769531-10.199219-10.640625-10.199219h-3.921875c-5.859375 0-10.617188 4.320313-10.628906 10.191407-.03125 9.757812-.039063 24.140625-.039063 39.5h-57.371093c-13.269532 0-23.609376-10.910157-22.167969-23.402344l10.9375-95.078125zm0 0" fill="#fedb41"/><g fill="#00efd1"><path d="m169.410156 147.910156v15.839844h-65.921875v-15.839844c0-17.359375 14.871094-31.210937 32.960938-31.210937 8.679687-.054688 17.042969 3.234375 23.359375 9.179687 6.09375 5.710938 9.566406 13.679688 9.601562 22.03125zm0 0"/><path d="m155.960938 420.621094c0 11.46875-9.300782 20.769531-20.769532 20.769531-11.472656 0-20.769531-9.300781-20.769531-20.769531 0-11.472656 9.296875-20.769532 20.769531-20.769532 11.46875 0 20.769532 9.296876 20.769532 20.769532zm0 0"/><path d="m168.941406 44.351562h-67.5c-4.417968 0-8-3.582031-8-8 0-4.417968 3.582032-8 8-8h67.5c4.417969 0 8 3.582032 8 8 0 4.417969-3.582031 8-8 8zm0 0"/></g><path d="m169.410156 200.460938c-4.417968 0-8-3.582032-8-8v-44.550782c-.03125-6.164062-2.605468-12.039062-7.117187-16.238281-4.828125-4.535156-11.21875-7.03125-17.84375-6.972656-13.761719 0-24.960938 10.414062-24.960938 23.210937v44.550782c0 4.417968-3.578125 8-8 8-4.417969 0-8-3.582032-8-8v-44.550782c0-21.621094 18.375-39.210937 40.960938-39.210937 10.730469-.066407 21.074219 4.007812 28.875 11.378906 7.699219 7.210937 12.074219 17.285156 12.085937 27.832031v44.550782c0 4.417968-3.582031 8-8 8zm0 0" fill="#00acea"/></svg>